<?xml version="1.0" standalone="no"?><!DOCTYPE svg PUBLIC "-//W3C//DTD SVG 1.1//EN" "http://www.w3.org/Graphics/SVG/1.1/DTD/svg11.dtd"><svg t="1560837803594" class="icon" style="" viewBox="0 0 1028 1024" version="1.1" xmlns="http://www.w3.org/2000/svg" p-id="6488" xmlns:xlink="http://www.w3.org/1999/xlink" width="200.78125" height="200"><defs><style type="text/css"></style></defs><path d="M927.40006778 303.59177862l-142.34830225-0.52055596 159.71593095-158.76946583C962.22997109 126.65018867 962.22997109 98.06695244 944.76769648 80.4627081 927.2107751 62.85846289 898.81683154 62.85846289 881.35455606 80.4627081l-161.27759796 160.42577959 1.08843487-145.18769677c0.42590918-18.21944707-13.96035528-34.07273174-32.08515557-33.64682256l-22.95177099 0c-18.12480029 0.47323213-33.12626748 11.3102543-33.50485284 29.52970136l-0.94646513 251.9016003c0 0.3312624 1.18308076 0.56787891 1.18308076 0.89914131l-1.75095967 16.51581035C630.96729981 369.98628242 633.0968457 378.17320273 638.96492744 383.99396152c5.77343496 5.91540469 13.91303232 9.46464785 22.951771 9.22803135L678.29053906 392.89073047c0.37858623 0 0.61520185-0.14196973 0.94646514-0.18929268L931.46986602 394.12113418c18.12480029-0.42590918 33.07894365-15.47469932 33.55217666-33.74146934L965.02204268 337.23860117C962.27729492 315.75385127 945.47754512 303.16586943 927.40006778 303.59177862zM963.31840596 687.61986172l-0.04732296-23.14106367c-0.42590918-18.26677002-15.33272959-33.31556016-33.3628831-33.74146933l-250.90781221 1.37237431c-0.37858623 0-0.61520185-0.14196973-0.94646513-0.14196973l-16.32651768-0.37858622c-8.99141572-0.28393945-17.08368926 3.31262666-22.85712422 9.18070839-5.82075878 5.86808174-7.95030381 14.05500205-7.76101113 23.18838662l1.75095967 16.51581035c0 0.3312624-1.18308076 0.56787891-1.18308076 0.89914131l0.94646513 249.96134707c0.37858623 18.21944707 15.28540576 29.05646836 33.36288311 29.48237754l24.32414444 0.04732295c18.0301544 0.42590918 32.32177207-15.47469932 31.89586289-33.69414639l-1.04111104-142.25365547 160.61507226 159.43199151c17.36762872 17.60424521 45.66692549 17.60424521 63.08187715 0s17.41495166-46.18748144 0-63.83904874l-160.42577959-160.18916308 141.40183711-0.52055596C943.82123135 720.27289619 960.5736582 709.10461162 963.31840596 687.61986172zM386.35347852 640.81717842c-5.77343496-5.86808174-13.91303232-9.46464785-22.951771-9.1807084l-16.42116357 0.37858623c-0.28393945 0-0.56787891 0.14196973-0.89914132 0.14196973L97.20848955 630.73732872c-18.07747734 0.42590918-33.07894365 15.47469932-33.50485283 33.74146933l-0.04732295 23.14106367c2.74474776 21.48475078 19.54449756 32.60571152 37.6219749 32.27444912l140.36072607 0.52055596L80.59803242 880.55670606C63.08843487 898.20827422 63.08843487 926.79151045 80.59803242 944.39575479s45.85621817 17.60424521 63.3658166 0l161.27759796-160.37845664-1.08843487 141.40183711c-0.42590918 18.21944707 13.96035528 34.07273174 32.03783261 33.64682255l22.99909395 0c18.12480029-0.47323213 33.12626748-11.26293047 33.50485284-29.52970136l0.94646513-248.16306445c0-0.3312624-1.18308076-0.56787891-1.18308076-0.89914132l1.7982835-16.51581035C394.35110615 654.87218047 392.22156026 646.68526016 386.35347852 640.81717842zM393.59393457 343.48526914l-0.94646514-251.90160029C392.31620703 73.36422178 377.36206367 62.47987666 359.33190928 62.00664453L335.00776484 62.00664453C316.97761045 61.62805918 302.68599277 77.48134385 303.11190195 95.65346709l1.08843487 144.19390869L143.63258662 80.4627081C126.17031201 62.85846289 97.91833818 62.85846289 80.50338653 80.4627081S63.08843487 126.65018867 80.50338653 144.30175683l159.00608232 158.76946583-140.07678662 0.52055596C81.44985078 303.16586943 64.74474776 315.75385127 62 337.23860117l0.04732295 23.14106367C62.47323213 378.64643574 77.38005253 393.695225 95.41020693 394.12113418l250.90781221-1.41969727c0.3312624 0.04732295 0.56787891 0.18929268 0.89914131 0.18929268l16.32651767 0.37858623c8.99141572 0.23661651 17.13101221-3.31262666 22.85712422-9.22803134C392.22156026 378.17320273 394.35110615 369.98628242 394.16181348 360.85289786L392.36352998 344.3370875C392.36352998 344.00582422 393.59393457 343.81653154 393.59393457 343.48526914z" p-id="6489" fill="#ffffff"></path></svg>