<?xml version="1.0" standalone="no"?><!DOCTYPE svg PUBLIC "-//W3C//DTD SVG 1.1//EN" "http://www.w3.org/Graphics/SVG/1.1/DTD/svg11.dtd"><svg t="1560234102792" class="icon" style="" viewBox="0 0 1024 1024" version="1.1" xmlns="http://www.w3.org/2000/svg" p-id="3532" xmlns:xlink="http://www.w3.org/1999/xlink" width="200" height="200"><defs><style type="text/css"></style></defs><path d="M157.497421 743.538802h629.861744c63.715448 0 112.461603-49.257926 112.461603-113.613087V516.248656c0-22.709823 14.969292-37.871029 37.487201-37.871029s37.487201 15.161206 37.487201 37.871029v113.677059c0 106.06447-82.523019 189.355145-187.436005 189.355145H127.494866L266.120745 959.569993a36.911459 36.911459 0 0 1 0 53.032235 36.01586 36.01586 0 0 1-52.456493 0L30.002555 826.893448a41.133567 41.133567 0 0 1-11.258954-26.484131 34.54452 34.54452 0 0 1 11.258954-26.548104L213.664252 588.216406a36.01586 36.01586 0 0 1 52.456493 0 36.911459 36.911459 0 0 1 0 53.096206l-108.751266 102.22619z m753.582301-492.451321H187.436005c-63.715448 0-112.461603 49.257926-112.461603 113.677059v113.613087c0 22.709823-14.969292 37.871029-37.487201 37.871029S0 501.08745 0 478.377627V364.76454C0 258.636099 82.523019 175.281452 187.436005 175.281452h697.415471l-108.751266-109.90275a36.911459 36.911459 0 0 1 0-53.032235 36.01586 36.01586 0 0 1 52.456493 0l183.725668 189.419117A41.133567 41.133567 0 0 1 1023.541326 228.377658a34.54452 34.54452 0 0 1-11.258955 26.484132l-183.725668 185.644808a36.01586 36.01586 0 0 1-52.456493 0 36.911459 36.911459 0 0 1 0-53.096206l134.979512-136.322911z" p-id="3533" fill="#ffffff"></path></svg>