<?xml version="1.0" standalone="no"?><!DOCTYPE svg PUBLIC "-//W3C//DTD SVG 1.1//EN" "http://www.w3.org/Graphics/SVG/1.1/DTD/svg11.dtd"><svg t="1560234865518" class="icon" style="" viewBox="0 0 1024 1024" version="1.1" xmlns="http://www.w3.org/2000/svg" p-id="5646" xmlns:xlink="http://www.w3.org/1999/xlink" width="200" height="200"><defs><style type="text/css"></style></defs><path d="M105.8 441.3c-51.7 0-93.8-42.1-93.8-93.8V150.1c0-19.3 5.9-37.9 16.9-53.8 29.7-42.3 88.3-52.7 130.6-23l141 98.7c9 6.3 16.8 14.1 23.1 23.1 29.6 42.3 19.3 100.9-23.1 130.6l-141 98.7c-15.9 11.1-34.4 16.9-53.7 16.9z m0-322.4c-9.9 0-19.6 4.6-25.7 13.3-3.7 5.3-5.6 11.5-5.6 17.9v197.4c0 17.2 14 31.2 31.2 31.2 6.4 0 12.6-2 18-5.7l141-98.7c14.1-9.9 17.6-29.4 7.7-43.5-2.1-3-4.7-5.6-7.7-7.7l-141-98.7c-5.5-3.7-11.7-5.5-17.9-5.5zM980.8 623.8H43.2c-17.3 0-31.2-14-31.2-31.2s14-31.2 31.2-31.2h937.5c17.3 0 31.2 14 31.2 31.2s-13.9 31.2-31.1 31.2zM980.8 280.1h-375c-17.3 0-31.2-14-31.2-31.2s14-31.2 31.2-31.2h375c17.3 0 31.2 14 31.2 31.2s-14 31.2-31.2 31.2zM980.8 967.6H43.2c-17.3 0-31.2-14-31.2-31.2s14-31.2 31.2-31.2h937.5c17.3 0 31.2 14 31.2 31.2s-13.9 31.2-31.1 31.2z" p-id="5647" fill="#ffffff"></path></svg>