<?xml version="1.0" standalone="no"?><!DOCTYPE svg PUBLIC "-//W3C//DTD SVG 1.1//EN" "http://www.w3.org/Graphics/SVG/1.1/DTD/svg11.dtd"><svg t="1560234063195" class="icon" style="" viewBox="0 0 1170 1024" version="1.1" xmlns="http://www.w3.org/2000/svg" p-id="2619" xmlns:xlink="http://www.w3.org/1999/xlink" width="228.515625" height="200"><defs><style type="text/css"></style></defs><path d="M995.474286 233.545143c-91.721143 0-176.420571 38.619429-232.96 109.494857l-338.870857 392.923429C345.965714 826.148571 225.938286 877.714286 98.889143 877.714286h-42.422857C21.211429 877.714286 0 858.404571 0 826.148571c0-32.182857 28.233143-51.492571 56.466286-51.492571h35.328c98.816 0 190.610286-45.129143 247.076571-109.494857L677.814857 272.091429a425.984 425.984 0 0 1 310.637714-135.314286h7.094858l-56.466286-51.492572a47.469714 47.469714 0 0 1 0-70.875428 59.245714 59.245714 0 0 1 77.604571 0l127.122286 115.931428c35.328 32.182857 35.328 83.748571 0 116.004572L1016.685714 362.349714a56.758857 56.758857 0 0 1-35.254857 12.873143 56.758857 56.758857 0 0 1-35.328-12.873143 47.469714 47.469714 0 0 1 0-70.875428l63.561143-57.929143h-14.116571z m-939.008 10.971428C28.233143 244.516571 0 218.331429 0 192.146286S28.233143 146.285714 56.466286 146.285714h49.444571c120.027429 0 240.054857 52.370286 310.637714 137.508572l70.656 85.211428c21.211429 19.602286 14.116571 52.370286-7.094857 65.462857-14.116571 6.582857-21.211429 13.165714-35.328 13.165715s-35.254857-6.582857-42.349714-19.748572l-70.582857-85.065143c-56.466286-58.953143-141.165714-98.304-225.938286-98.304H56.466286z m967.314285 419.254858l120.027429 111.323428a78.848 78.848 0 0 1 0 117.906286L1016.685714 1010.907429a56.173714 56.173714 0 0 1-35.254857 13.092571 56.173714 56.173714 0 0 1-35.328-13.165714 48.786286 48.786286 0 0 1 0-71.972572l49.444572-45.860571c-127.122286 0-247.149714-52.370286-324.754286-144.091429L585.947429 650.678857c-21.211429-26.258286-14.116571-52.443429 7.094857-72.118857 28.233143-19.602286 56.466286-13.092571 77.604571 6.582857l77.677714 98.230857a331.337143 331.337143 0 0 0 247.149715 111.396572h14.116571l-63.561143-58.953143a48.786286 48.786286 0 0 1 0-72.045714 58.514286 58.514286 0 0 1 77.677715 0z" p-id="2620" fill="#ffffff"></path></svg>